<?xml version="1.0" encoding="UTF-8" standalone="no"?>
<svg
   version="1.1"
   viewBox="0 0 803.375 566.3468"
   width="803.375pt"
   height="566.3468pt"
   id="svg15"
   sodipodi:docname="hand and horizon.svg"
   inkscape:version="1.4.2 (f4327f4, 2025-05-13)"
   xmlns:inkscape="http://www.inkscape.org/namespaces/inkscape"
   xmlns:sodipodi="http://sodipodi.sourceforge.net/DTD/sodipodi-0.dtd"
   xmlns="http://www.w3.org/2000/svg"
   xmlns:svg="http://www.w3.org/2000/svg">
  <defs
     id="defs15" />
  <sodipodi:namedview
     id="namedview15"
     pagecolor="#ffffff"
     bordercolor="#000000"
     borderopacity="0.25"
     inkscape:showpageshadow="2"
     inkscape:pageopacity="0.0"
     inkscape:pagecheckerboard="true"
     inkscape:deskcolor="#d1d1d1"
     inkscape:document-units="pt"
     showgrid="false"
     inkscape:zoom="0.58227539"
     inkscape:cx="530.67673"
     inkscape:cy="378.68679"
     inkscape:window-width="1920"
     inkscape:window-height="1013"
     inkscape:window-x="-9"
     inkscape:window-y="-9"
     inkscape:window-maximized="1"
     inkscape:current-layer="svg15"
     showguides="true" />
  <g
     id="g15"
     transform="translate(-110.26605,-388.51413)">
    <path
       d="m 476.01,389.41 c 12.92,-1.06 26.01,-0.88 38.99,-0.89 15.99,-0.09 32.05,0.96 48,1.97 33.64,2.68 67.07,7.47 99.81,15.75 19.97,4.9 39.67,10.98 58.98,18.04 16.31,5.57 32.48,12.75 48.17,19.74 13.75,6.64 27.74,13.4 40.9,21.13 20.92,11.89 41.34,24.88 60.4,39.6 6.83,4.76 12.98,10.3 19.51,15.45 8,6.37 15.16,13.65 22.87,20.39 0.02,6.12 -0.42,12.12 -1.16,18.19 -3.54,-3.21 -7.17,-6.33 -10.64,-9.63 -6.85,-6.38 -14.38,-11.51 -21.61,-17.39 -6.23,-4.91 -12.76,-9.2 -19.3,-13.67 -36.82,-24.48 -76.62,-44.49 -118,-60.02 -60.21,-22.88 -123.59,-35.73 -187.8,-39.96 -7.37,-0.82 -14.76,-0.47 -22.14,-1.12 -5.67,-0.51 -11.3,-0.36 -16.99,-0.41 -10.68,0.03 -21.34,-0.17 -32,0.73 -16.11,0.24 -31.99,2.03 -48.03,3.41 -39.63,4.25 -78.67,12.54 -116.93,23.64 -11.39,3.25 -22.51,7.23 -33.76,10.9 -40.27,14.58 -79.8,32.96 -115.89,56.11 -16.11,10.18 -31.81,21.35 -46.2,33.86 -4.21,3.56 -7.96,7.59 -12.37,10.94 -0.16,-5.04 -0.73,-10.13 -0.5,-15.16 -0.03,-1.13 1.14,-2.05 1.81,-2.87 25.06,-25.21 53.45,-45.88 83.83,-64.19 31.72,-18.82 65.31,-35.33 99.99,-47.93 57.62,-21.62 118.53,-34.28 180.06,-36.61 z"
       fill="#FFFFFF"
       id="path10" />
    <path
       d="m 511.91,432.76 c 6.42,19.69 16.16,38.44 27.89,55.49 14.51,20.96 32.68,38.89 53.13,54.04 -12.93,0.72 -25.75,-1.78 -37.79,-6.43 -7.4,-2.9 -14.04,-7.04 -20.62,-11.42 1.35,4.02 2.46,8.07 4.03,12.02 8.45,21.6 20.2,42.11 35.12,59.89 11.85,14.57 26.51,27.09 42.27,37.24 -27.21,3.33 -55.1,-2.54 -76.72,-19.9 2.67,14.75 7.97,28.93 15.13,42.09 10.37,19.3 24.41,36.51 40.44,51.4 8.76,8.47 18.54,15.35 28.37,22.48 -11.45,4.74 -23.76,7.19 -36.16,6.97 -18.49,-0.19 -35.69,-5.62 -52.2,-13.6 0.38,38.15 1.34,76.77 3.54,114.87 10.18,-18.08 23.29,-34.95 39.25,-48.3 12.3,-10.61 27.27,-18.63 42.25,-24.76 12.5,-4.86 25.52,-8.74 38.4,-12.42 24.17,-6.83 47.53,-13.73 70.03,-25.16 12.49,-6.37 24.54,-13.85 35.66,-22.38 15.82,-12.07 29.63,-26.61 41.15,-42.81 9.35,-13.23 17.08,-27.26 24.18,-41.81 5.41,-10.63 9.86,-21.03 17.56,-30.36 6.98,-8.5 17.02,-14.23 28.22,-14.04 2.87,0.23 6.21,0.71 7.27,3.86 0.87,3.74 0.18,7.98 -0.14,11.77 -3.05,25.53 -9.62,50.95 -17.32,75.44 -8.84,27.79 -20.3,54.87 -34.69,80.25 -22.69,40.32 -52.98,76.76 -87.12,107.88 -41.39,38.08 -87.26,67.89 -135.22,96.82 -2.03,1.11 -4.38,3.03 -6.76,2.98 -58.71,-0.01 -117.41,0.01 -176.12,-0.02 -1.65,0.05 -2.95,-0.66 -4.33,-1.48 -6.42,-3.9 -12.8,-7.87 -19.23,-11.75 -53.74,-32.94 -104.39,-68.02 -147.84,-114.15 -35.85,-38.13 -64.83,-82.39 -83.87,-131.22 -12.13,-31.2 -21.58,-63.68 -26.85,-96.76 -0.85,-5.75 -1.75,-11.68 -1.57,-17.5 0.04,-2.1 0.89,-4.1 2.88,-5.03 3.7,-1.54 8.27,-1.27 12.11,-0.4 9.81,2.16 18.43,8.99 24.03,17.16 5.74,8.36 10.27,18.09 14.81,27.14 7.66,15.52 16.15,30.7 26.52,44.59 8.66,11.49 18.49,22.17 29.4,31.57 16.54,13.97 34.56,25.89 54.45,34.54 17.91,8.4 37.57,14.12 56.48,19.64 22.77,6.53 44.56,12.72 65.18,24.71 24.83,14.28 43.17,35.39 58.05,59.54 1.77,-37.53 2.79,-75.08 3.32,-112.65 -14.88,7.47 -30.79,12.36 -47.46,13.44 -14.12,0.97 -28.13,-1.58 -41.18,-6.95 16.81,-10.79 31.99,-24.29 45.21,-39.25 19.32,-21.77 33.79,-47.62 39.45,-76.37 -5.18,3.93 -10.45,7.66 -16.3,10.53 -18.48,9.25 -40.12,11.93 -60.48,9.4 31.39,-19.94 55.46,-49.09 71.28,-82.59 3.9,-8.64 7.9,-17.47 10.26,-26.68 -16.67,12.37 -37.62,18.98 -58.38,17.95 17.99,-13.17 34.3,-28.86 47.78,-46.65 14.4,-18.88 25.5,-40.45 33.25,-62.86 z"
       fill="#FFFFFF"
       id="path11" />
    <path
       d="m 332.15,568.98 c 4.84,12.94 11.38,25.08 19.96,35.94 7.16,9.81 16,17.78 25.48,25.3 -11.4,0.63 -23.08,-2.69 -32.34,-9.38 7.44,25.22 23.68,47.42 45.35,62.3 -15.19,1.4 -30.47,-1.65 -42.64,-11.21 3.86,20.09 16.62,38.07 30.24,52.87 9.34,10.59 20.04,19.08 30.83,28.04 -6.76,-2.07 -13.28,-4.8 -20.04,-6.84 -19.22,-6.45 -39.11,-11.42 -58.49,-17.38 -12.07,-3.86 -23.96,-8.6 -35.24,-14.36 10.36,-12.26 18.04,-26.82 21.5,-42.54 -12.14,9.62 -27.56,12.94 -42.8,11.36 6.62,-4.71 12.97,-9.66 18.46,-15.68 12.56,-13.16 21.5,-29.2 26.96,-46.51 -9.65,6.64 -20.73,9.83 -32.45,9.38 19.63,-14.75 35.37,-35.29 44.16,-58.22 0.36,-1.02 0.71,-2.04 1.06,-3.07 z"
       fill="#FFFFFF"
       id="path12" />
    <path
       d="m 691.67,569.01 c 3.64,10.67 9.12,20.62 15.32,30 8.15,12.08 18.42,22.34 29.92,31.24 -11.6,0.61 -22.76,-2.73 -32.28,-9.32 4.11,14.54 11.44,27.83 20.76,39.66 6.94,8.86 15.27,16.06 24.41,22.55 -1.93,0.07 -3.86,0.16 -5.79,0.23 -13.22,0.59 -26.54,-3.51 -37,-11.65 3.48,15.97 11.42,29.95 21.4,42.72 -22.61,12.25 -45.93,17.4 -70.42,24.62 -14.43,4.12 -28.56,9.07 -42.81,13.76 11.03,-9.29 21.98,-18.23 31.57,-29.08 13.3,-14.39 25.51,-32.45 29.19,-51.98 -11.98,9.65 -27.42,12.85 -42.5,11.32 9.04,-6.39 17.27,-13.77 24.3,-22.33 9.35,-11.95 16.66,-25.32 20.9,-39.92 -4.21,2.66 -8.31,5.14 -13.03,6.79 -6.25,2.13 -12.81,2.89 -19.4,2.6 19.89,-14.9 35.31,-35.44 44.46,-58.51 0.34,-0.9 0.67,-1.8 1,-2.7 z"
       fill="#FFFFFF"
       id="path13" />
    <path
       d="m 227.13,703.95 c 5.77,2.31 9.45,7.98 13.28,12.6 20.57,25.66 45.32,47.37 74.8,62.24 17.85,9.44 37.1,15.71 54.87,25.17 8.44,4.63 17.7,9.36 22.47,18.15 -19.53,-8.76 -41.45,-13.29 -61.77,-18.77 -18.14,-5.55 -35.84,-13.22 -52.08,-23.05 -23.2,-14.19 -42.71,-34.12 -56,-57.88 -2,-3.91 -4.32,-8.05 -5.18,-12.38 -0.39,-2.21 -0.06,-4.31 1.76,-5.78 2.06,-1.6 5.56,-1.21 7.85,-0.3 z"
       fill="#FFFFFF"
       id="path14" />
    <path
       d="m 799.99,703.22 c 2.2,-0.24 4.35,0.24 5.69,2.13 1.67,2.21 0.9,5.04 0.08,7.43 -2.54,6.75 -6.08,12.93 -10.05,18.92 -14.39,22.35 -34.52,40.49 -57.79,53.24 -14.55,7.89 -30.11,14.34 -45.99,19.01 -20.12,5.31 -41.39,10.22 -60.52,18.56 5.71,-9.85 16.44,-14.83 26.03,-20.05 12.68,-6.28 25.96,-11.41 38.89,-17.16 18.31,-7.93 35.49,-18.38 50.87,-31.09 11.15,-9.48 21.57,-19.8 31.1,-30.92 4.1,-4.84 7.81,-10.26 12.23,-14.8 2.61,-2.61 5.65,-4.92 9.46,-5.27 z"
       fill="#FFFFFF"
       id="path15" />
  </g>
</svg>
